<svg width="681" height="693" viewBox="0 0 681 693" fill="none" xmlns="http://www.w3.org/2000/svg">
<rect x="5" y="5" width="671" height="683" rx="335.5" fill="black"/>
<rect x="5" y="5" width="671" height="683" rx="335.5" stroke="#F0C777" stroke-width="10"/>
<path d="M515.293 277.418C508.962 281.887 504.897 281.763 503.655 281.142C499.776 301.314 492.576 340.821 494.81 337.47C497.603 333.28 511.569 323.039 513.897 323.039C516.224 323.039 519.948 325.832 522.741 325.832C524.976 325.832 526.466 321.797 526.931 319.78C527.552 315.125 530.376 302.37 536.707 288.59C544.621 271.366 561.379 267.642 570.224 267.642C579.069 267.642 612.121 277.418 612.121 319.78C612.121 362.142 558.121 391.935 555.328 393.332C552.535 394.728 497.138 418.935 492.017 421.728C487.921 423.963 474.483 430.418 468.276 433.366L467.345 432.901C474.048 423.59 470.138 416.918 467.345 414.745L445 394.263L409.155 420.332C416.759 425.918 433.455 437.928 439.414 441.28C446.862 445.47 448.724 455.245 449.655 458.97C450.4 461.949 454 466.108 455.707 467.814C459.897 463.159 470.976 451.987 481.776 444.539C495.276 435.228 566.966 410.09 582.793 400.314C598.621 390.539 634 358.883 634 313.728C634 268.573 597.224 244.832 566.966 244.832C536.707 244.832 523.207 271.832 515.293 277.418Z" fill="#CACACA"/>
<path d="M185.707 518.556C182.914 515.763 185.707 512.504 185.707 512.504C185.707 512.504 200.138 503.194 208.052 497.142C215.966 491.09 218.293 485.504 218.293 485.504L300.224 471.073L382.155 485.504C382.155 485.504 385.879 492.021 392.397 497.142C398.914 502.263 414.276 512.504 414.276 512.504C414.276 512.504 417.069 515.763 414.276 518.556C411.483 521.349 399.845 526.004 300.224 526.004C200.604 526.004 188.5 521.349 185.707 518.556Z" fill="#F0C777"/>
<path d="M109.362 218.301C84.2241 218.301 80.5 223.887 80.5 225.749C80.5 226.623 84.1556 233.564 86.5517 241.108C89.2574 249.625 90.7414 258.801 90.7414 258.801C90.7414 258.801 202.466 260.659 300.457 260.659C398.448 260.659 510.172 258.801 510.172 258.801C510.172 258.801 512.365 250.284 514.828 241.573C516.707 234.924 519.017 227.967 519.017 225.749C519.017 220.625 505.052 217.831 492.948 217.831C487.025 217.831 389.977 215.389 300.457 215.504C207.041 215.624 120.892 218.301 109.362 218.301Z" fill="#F0C777"/>
<path d="M510.172 257.866C510.172 257.866 519.017 306.745 475.258 389.608C431.5 472.47 369.12 493.883 369.12 493.883C369.12 493.883 357.796 496.226 312.793 496.621C308.66 496.657 303.017 481.78 301.155 481.78C299.293 481.78 291.053 496.66 287.19 496.628C241.411 496.259 229.931 493.883 229.931 493.883C229.931 493.883 161.966 458.504 126.12 389.608C90.2751 320.711 90.741 257.866 90.741 257.866H510.172Z" fill="white"/>
<path d="M488.292 217.828C477.12 217.455 269.81 218.293 229.465 217.828C195.017 300.224 208.517 358.88 229.465 418.466C238.724 444.803 256.543 505.207 287.19 523.673C323.966 527.397 374.77 523.673 387.741 523.673C411.482 523.673 415.206 518.086 415.672 515.293C416.137 512.5 404.499 505.983 397.982 501.793C392.768 498.442 386.189 490.776 383.551 487.362C386.81 485.655 398.448 478.238 418.931 462.224C444.534 442.207 459.896 413.811 472.465 395.19C485.034 376.569 493.879 346.776 499.93 331.88C505.982 316.983 509.706 289.518 510.637 281.138C511.568 272.759 510.637 262.052 510.637 258.793C510.637 255.535 519.948 228.535 518.551 223.88C517.155 219.224 502.258 218.293 488.292 217.828Z" fill="black" fill-opacity="0.2"/>
</svg>
