<?xml version="1.0" standalone="no"?>
<!DOCTYPE svg PUBLIC "-//W3C//DTD SVG 20010904//EN"
 "http://www.w3.org/TR/2001/REC-SVG-20010904/DTD/svg10.dtd">
<svg version="1.0" xmlns="http://www.w3.org/2000/svg"
 width="700.000000pt" height="700.000000pt" viewBox="0 0 700.000000 700.000000"
 preserveAspectRatio="xMidYMid meet">
<metadata>
Created by potrace 1.14, written by Peter Selinger 2001-2017
</metadata>
<g transform="translate(0.000000,700.000000) scale(0.100000,-0.100000)"
fill="#000000" stroke="none">
<path d="M1253 6110 c-83 -29 -145 -103 -156 -185 -2 -16 14 -97 35 -180 61
-234 200 -778 203 -795 2 -8 18 -82 35 -165 18 -82 33 -159 35 -170 2 -11 15
-76 29 -145 13 -69 32 -170 41 -225 8 -55 17 -110 19 -121 3 -12 7 -48 11 -80
4 -33 9 -70 11 -84 17 -107 37 -328 50 -560 9 -161 12 -758 3 -771 -3 -6 -9
-10 -13 -10 -3 1 -10 1 -15 1 -8 0 -31 -85 -45 -165 -3 -16 -8 -46 -11 -65 -3
-19 -10 -51 -15 -70 -5 -19 -11 -48 -14 -65 -3 -25 -36 -191 -52 -270 -2 -11
-17 -83 -32 -160 l-28 -140 -40 1 c-21 1 -61 4 -89 7 -125 15 -195 22 -350 32
-55 4 -116 9 -135 11 -19 2 -150 6 -290 9 -239 6 -257 5 -290 -13 -66 -36 -93
-123 -61 -191 12 -25 82 -83 267 -222 138 -103 267 -197 286 -208 28 -17 143
-46 413 -106 11 -2 29 -6 40 -8 79 -18 577 -129 592 -132 10 -2 70 -15 133
-30 122 -28 332 -71 390 -80 19 -3 49 -8 65 -12 17 -3 39 -7 50 -8 11 -2 54
-8 95 -14 111 -16 226 -30 305 -37 39 -3 86 -7 105 -9 223 -24 1082 -24 1340
0 25 2 81 7 125 10 44 3 87 8 95 10 8 2 40 7 70 10 142 16 326 48 590 101 14
3 115 25 225 50 110 25 211 48 225 50 14 3 53 11 86 19 34 8 73 16 85 19 13 2
56 12 94 21 39 9 81 19 94 21 12 3 53 12 90 20 36 9 76 18 89 20 117 22 264
58 299 74 54 24 548 394 569 426 42 63 20 157 -46 202 l-35 24 -270 -6 c-148
-4 -288 -8 -310 -10 -22 -2 -83 -7 -135 -11 -52 -3 -108 -8 -125 -10 -126 -15
-286 -27 -291 -22 -4 4 -8 23 -10 44 -2 29 -169 719 -210 871 -5 17 -12 22
-25 19 -17 -5 -19 2 -20 61 -1 144 3 640 6 687 2 28 6 102 10 165 3 63 8 129
10 145 2 17 7 57 10 90 3 33 7 76 10 95 2 19 7 58 10 85 35 299 147 867 250
1265 40 157 97 374 125 483 54 210 55 228 20 297 -24 46 -65 85 -115 107 -38
17 -156 17 -2255 18 -1943 0 -2220 -2 -2257 -15z"/>
</g>
</svg>
